<svg width="124" height="309" viewBox="0 0 124 309" fill="none" xmlns="http://www.w3.org/2000/svg">
<path d="M81.623 235C92.9564 228 116.623 214 120.623 214M89.623 255.5C93.9026 258.068 97.623 259.028 109.623 260.5C121.623 261.972 121.764 263.641 122.623 264.5M74.123 285C79.7897 290.167 92.123 302 96.123 308" stroke="#CACBD1" stroke-width="2"/>
<path d="M1.36769 34.5019C3.53905 44.988 15.2392 55.9503 34.1182 63.5018C37.0074 64.2827 39.481 64.9621 41.6195 65.5666M1.36769 34.5019C0.983492 32.6465 0.897616 30.806 1.12308 29.0019C4.12338 26.0018 14.1195 34.5016 41.6195 50.5017C44.4911 52.2262 49.5825 55.188 53.123 56.9907M1.36769 34.5019L41.6195 55.5019M52.123 68.9079C55.2392 70.1376 56.9578 71.2447 59.6153 73.0015C70.6388 80.2891 80.3609 91.1651 87.6154 92.0017C114.615 95.1156 112.115 58.6569 94.1154 54.5024C87.6154 53.0021 70.6153 60.0024 56.6153 58.5015C55.9931 58.3774 54.7148 57.8012 53.123 56.9907M52.123 68.9079C49.7624 67.9764 46.5998 66.9745 41.6195 65.5666M52.123 68.9079C52.123 76.5019 57.1153 81.5019 55.623 98.5019C54.7013 109.002 50.623 120.502 33.123 118.002C26.1843 117.011 11.123 88.5019 40.9178 73.0015C41.138 70.6211 41.3717 68.1437 41.6195 65.5666M53.123 56.9907C53.2327 51.4006 61.623 9.5 49.123 1C45.123 1 43.123 6.00001 43.623 51.0019M68.1231 66.5019C91.123 60.0019 100.623 65.0019 100.623 75.0019C99.123 84.0019 83.123 87.5019 68.1231 66.5019ZM44.623 80.5019C49.123 99.5019 47.623 113.502 36.123 112.502C27.123 108.502 33.123 83.0019 44.623 80.5019Z" stroke="#CACBD1" stroke-width="2"/>
<path d="M47.4678 61.1736H47.6279" stroke="#CACBD1" stroke-width="5" stroke-linecap="round"/>
</svg>
