<svg width="198" height="422" viewBox="0 0 198 422" fill="none" xmlns="http://www.w3.org/2000/svg">
<path d="M97.2402 2C81.5735 8.33333 55.7376 19 22.239 21.5C16.7536 21.9094 21.2406 29 34.2403 40.5M97.2402 2L82.739 16M97.2402 2C86.2398 21.3333 56.2391 65 56.2391 65C56.2391 65 46.2391 59.4294 45.2391 54.1441M34.2403 40.5C26.2391 45 20.739 51.5 23.239 75C29.1125 69.63 37.0506 62.0875 45.2391 54.1441M34.2403 40.5C52.2391 30.3772 84.739 13.5 82.739 16M82.739 16C78.6388 21.1252 61.4483 38.4202 45.2391 54.1441" stroke="#F2F2F2" stroke-width="2"/>
<path d="M27.7391 93.5L19.2391 103.5M10.2391 123L7.73914 130.5M1.73914 150V156.5M5.23914 175C6.23914 177.167 8.53914 181.8 9.73914 183M21.7391 197.5L28.7391 204M40.2391 221.5C41.2391 223.833 43.2391 229.1 43.2391 231.5" stroke="#F2F2F2" stroke-width="2"/>
<path d="M58.7392 329.5H52.7392M59.7392 332.5H53.7392M57.2392 336C59.0725 335.833 62.8392 335.4 63.2392 335M58.7392 338.5C60.4059 338.5 63.8392 338.4 64.2392 338M155.239 416C166.739 426 210.239 417.5 191.739 393.5C191.331 392.762 189.931 391.471 187.739 389.746M155.239 416C168.906 415.83 194.539 410.342 187.739 389.746M155.239 416L139.239 405.642M68.7392 360C81.7391 360 83.8336 352.656 85.2391 352.5M68.7392 360C64.4888 355.541 60.1451 350.468 56.5979 345.5M68.7392 360L84.7391 370.358M98.7392 332.5C99.5725 335 99.5391 339.9 96.7391 343.5M98.7392 332.5C92.9954 330.196 87.8447 328.294 83.2391 326.756M98.7392 332.5C109.84 339.225 125.196 348.659 140.239 358.131M96.7391 343.5C93.2391 348 98.7391 351 85.2391 352.5M96.7391 343.5C101.431 346.805 114.239 360.531 122.739 364C131.239 367.469 142.739 372.5 148.739 377.5C154.739 382.5 185.849 404.39 186.739 403.5M85.2391 352.5C94.5318 359.087 101.739 365 112.239 373C122.739 381 137.269 389.176 141.239 391C147.739 393.986 160.719 406.261 170.739 413.5M187.739 389.746C185.296 387.822 181.87 385.358 177.739 382.515M139.239 405.642C141.906 403.928 147.339 400.3 147.739 399.5M139.239 405.642L128.239 398.52M128.239 398.52C129.406 398.347 131.939 397.9 132.739 397.5M128.239 398.52L93.4534 376M134.739 396L137.239 395M177.739 382.515C176.572 384.01 174.039 387.2 173.239 388M177.739 382.515C176.169 381.435 174.498 380.3 172.739 379.12M172.739 379.12C171.572 380.913 169.139 384.5 168.739 384.5M172.739 379.12C165.986 374.586 157.956 369.378 149.511 364M56.5979 345.5C44.5148 328.577 41.6733 312.87 83.2391 326.756M56.5979 345.5C62.145 345.837 75.2391 342.56 83.2391 326.756M149.511 364C148.92 365.333 147.539 368.2 146.739 369M149.511 364C146.461 362.058 143.357 360.093 140.239 358.131M140.239 358.131L138.739 362M127.239 361L128.239 359M128.239 356V354.5M93.4534 376L99.7391 373M93.4534 376L84.7391 370.358M84.7391 370.358C86.5486 370.593 90.8248 370.506 93.4534 368.281" stroke="#F2F2F2" stroke-width="2"/>
</svg>
