<svg width="197" height="422" viewBox="0 0 197 422" fill="none" xmlns="http://www.w3.org/2000/svg">
<path d="M96.5011 2C80.8344 8.33333 54.9984 19 21.4999 21.5C16.0144 21.9094 20.5014 29 33.5012 40.5M96.5011 2L81.9999 16M96.5011 2C85.5007 21.3333 55.5 65 55.5 65C55.5 65 45.5 59.4294 44.5 54.1441M33.5012 40.5C25.5 45 19.9999 51.5 22.4999 75C28.3734 69.63 36.3115 62.0875 44.5 54.1441M33.5012 40.5C51.5 30.3772 83.9999 13.5 81.9999 16M81.9999 16C77.8997 21.1252 60.7092 38.4202 44.5 54.1441" stroke="#CACBD1" stroke-width="2"/>
<path d="M27 93.5L18.5 103.5M9.5 123L7 130.5M1 150V156.5M4.5 175C5.5 177.167 7.8 181.8 9 183M21 197.5L28 204M39.5 221.5C40.5 223.833 42.5 229.1 42.5 231.5" stroke="#CACBD1" stroke-width="2"/>
<path d="M58.0001 329.5H52.0001M59.0001 332.5H53.0001M56.5001 336C58.3334 335.833 62.1001 335.4 62.5001 335M58.0001 338.5C59.6667 338.5 63.1001 338.4 63.5001 338M154.5 416C166 426 209.5 417.5 191 393.5C190.592 392.762 189.192 391.471 187 389.746M154.5 416C168.167 415.83 193.8 410.342 187 389.746M154.5 416L138.5 405.642M68 360C81 360 83.0944 352.656 84.5 352.5M68 360C63.7496 355.541 59.406 350.468 55.8588 345.5M68 360L84 370.358M98 332.5C98.8334 335 98.8 339.9 96 343.5M98 332.5C92.2563 330.196 87.1056 328.294 82.5 326.756M98 332.5C109.1 339.225 124.457 348.659 139.5 358.131M96 343.5C92.5 348 98 351 84.5 352.5M96 343.5C100.692 346.805 113.5 360.531 122 364C130.5 367.469 142 372.5 148 377.5C154 382.5 185.11 404.39 186 403.5M84.5 352.5C93.7926 359.087 101 365 111.5 373C122 381 136.53 389.176 140.5 391C147 393.986 159.98 406.261 170 413.5M187 389.746C184.557 387.822 181.131 385.358 177 382.515M138.5 405.642C141.167 403.928 146.6 400.3 147 399.5M138.5 405.642L127.5 398.52M127.5 398.52C128.667 398.347 131.2 397.9 132 397.5M127.5 398.52L92.7142 376M134 396L136.5 395M177 382.515C175.833 384.01 173.3 387.2 172.5 388M177 382.515C175.43 381.435 173.758 380.3 172 379.12M172 379.12C170.833 380.913 168.4 384.5 168 384.5M172 379.12C165.247 374.586 157.217 369.378 148.772 364M55.8588 345.5C43.7756 328.577 40.9342 312.87 82.5 326.756M55.8588 345.5C61.4059 345.837 74.5 342.56 82.5 326.756M148.772 364C148.181 365.333 146.8 368.2 146 369M148.772 364C145.722 362.058 142.618 360.093 139.5 358.131M139.5 358.131L138 362M126.5 361L127.5 359M127.5 356V354.5M92.7142 376L99 373M92.7142 376L84 370.358M84 370.358C85.8095 370.593 90.0856 370.506 92.7142 368.281" stroke="#CACBD1" stroke-width="2"/>
</svg>
