<svg width="124" height="309" viewBox="0 0 124 309" fill="none" xmlns="http://www.w3.org/2000/svg">
<path d="M81.8115 235C93.1449 228 116.812 214 120.812 214M89.8115 255.5C94.091 258.068 97.8115 259.028 109.812 260.5C121.812 261.972 121.953 263.641 122.812 264.5M74.3115 285C79.9782 290.167 92.3115 302 96.3115 308" stroke="#F2F2F2" stroke-width="2"/>
<path d="M1.55617 34.5019C3.72753 44.988 15.4276 55.9503 34.3067 63.5018C37.1958 64.2827 39.6694 64.9621 41.8079 65.5666M1.55617 34.5019C1.17197 32.6465 1.08609 30.806 1.31156 29.0019C4.31185 26.0018 14.3079 34.5016 41.8079 50.5017C44.6796 52.2262 49.771 55.188 53.3115 56.9907M1.55617 34.5019L41.8079 55.5019M52.3115 68.9079C55.4277 70.1376 57.1463 71.2447 59.8038 73.0015C70.8272 80.2891 80.5494 91.1651 87.8038 92.0017C114.804 95.1156 112.304 58.6569 94.3038 54.5024C87.8038 53.0021 70.8038 60.0024 56.8038 58.5015C56.1816 58.3774 54.9033 57.8012 53.3115 56.9907M52.3115 68.9079C49.9509 67.9764 46.7883 66.9745 41.8079 65.5666M52.3115 68.9079C52.3115 76.5019 57.3038 81.5019 55.8115 98.5019C54.8898 109.002 50.8115 120.502 33.3115 118.002C26.3728 117.011 11.3115 88.5019 41.1063 73.0015C41.3265 70.6211 41.5602 68.1437 41.8079 65.5666M53.3115 56.9907C53.4212 51.4006 61.8115 9.5 49.3115 1C45.3115 1 43.3115 6.00001 43.8115 51.0019M68.3116 66.5019C91.3115 60.0019 100.812 65.0019 100.812 75.0019C99.3115 84.0019 83.3115 87.5019 68.3116 66.5019ZM44.8115 80.5019C49.3115 99.5019 47.8115 113.502 36.3115 112.502C27.3115 108.502 33.3115 83.0019 44.8115 80.5019Z" stroke="#F2F2F2" stroke-width="2"/>
<path d="M47.6562 61.1736H47.8164" stroke="#F2F2F2" stroke-width="5" stroke-linecap="round"/>
</svg>
